<svg width="900" height="860" viewBox="0 0 900 860" fill="none" xmlns="http://www.w3.org/2000/svg">
  <rect width="900" height="860" rx="48" fill="#F4EFE7"/>
  <rect x="36" y="36" width="828" height="788" rx="38" fill="#FFFDF9" stroke="#DAD3C7"/>
  <rect x="72" y="82" width="168" height="12" rx="6" fill="#BEAF92"/>
  <rect x="72" y="132" width="312" height="56" rx="16" fill="#0E1C28"/>
  <rect x="72" y="212" width="420" height="22" rx="11" fill="#8B98A3"/>
  <rect x="72" y="292" width="756" height="236" rx="28" fill="#0B1822"/>
  <rect x="112" y="334" width="676" height="54" rx="16" fill="#102432"/>
  <rect x="112" y="412" width="200" height="92" rx="20" fill="#F3EFE8"/>
  <rect x="336" y="412" width="200" height="92" rx="20" fill="#F3EFE8"/>
  <rect x="560" y="412" width="200" height="92" rx="20" fill="#F3EFE8"/>
  <rect x="112" y="590" width="328" height="90" rx="26" fill="#F1C54A"/>
  <rect x="464" y="590" width="260" height="90" rx="26" fill="#E9E1D4"/>
  <rect x="112" y="718" width="616" height="20" rx="10" fill="#93A3B0"/>
</svg>
